<svg width="116" height="116" viewBox="0 0 116 116" fill="none" xmlns="http://www.w3.org/2000/svg">
<circle cx="58" cy="58" r="58" fill="#FE99E0"/>
<path d="M21.3491 79V78.3868L22.637 77.8962C23.4546 77.61 23.9861 77.2216 24.2314 76.731C24.4767 76.2404 24.5993 75.6067 24.5993 74.8299V42.7571C24.5993 41.9395 24.4767 41.2853 24.2314 40.7947C23.9861 40.3041 23.4546 39.9157 22.637 39.6296L21.3491 39.139V38.5257H36.619V39.139L35.2698 39.6909C34.5748 39.9362 34.1047 40.3041 33.8594 40.7947C33.6141 41.2853 33.4914 41.9599 33.4914 42.8185V74.8912C33.4914 75.7089 33.6141 76.3426 33.8594 76.7923C34.1456 77.242 34.677 77.61 35.4538 77.8962L36.619 78.3868V79H21.3491ZM43.9779 79V78.3868L44.7752 78.1415C45.5928 77.8962 46.0221 77.4873 46.063 76.915C46.1039 76.3426 45.8586 75.6885 45.3271 74.9526L33.5528 58.2109L49.0679 42.3892C49.6403 41.8168 49.9469 41.2649 49.9878 40.7334C50.0695 40.2019 49.6811 39.7931 48.8226 39.5069L47.7801 39.139V38.5257H56.7335V39.139L55.139 39.6296C54.2396 39.9157 53.5241 40.2633 52.9927 40.6721C52.4612 41.0809 51.8479 41.6328 51.1529 42.3279L40.1758 53.5503L54.5871 74.5846C55.2004 75.4841 55.7727 76.2199 56.3042 76.7923C56.8766 77.3647 57.6738 77.8144 58.6959 78.1415L59.5544 78.3868V79H43.9779ZM60.8604 79V78.3868L61.9643 77.9575C62.7819 77.6304 63.3339 77.2216 63.62 76.731C63.9471 76.2404 64.1106 75.5863 64.1106 74.7686V42.7571C64.1106 41.8986 63.9471 41.224 63.62 40.7334C63.3339 40.2428 62.7819 39.8544 61.9643 39.5682L60.8604 39.139V38.5257H78.4606C83.4483 38.5257 87.0461 39.4456 89.2537 41.2853C91.4614 43.0842 92.5653 45.3736 92.5653 48.1537C92.5653 50.2387 91.7476 52.1398 90.1123 53.8569C88.5178 55.5331 85.7582 56.7187 81.8335 57.4137C86.3306 57.9043 89.6217 59.0899 91.7067 60.9706C93.7918 62.8103 94.8343 65.0589 94.8343 67.7163C94.8343 69.0245 94.5481 70.3532 93.9757 71.7024C93.4034 73.0106 92.4222 74.2167 91.0322 75.3205C89.683 76.4244 87.8228 77.3238 85.4516 78.0188C83.0804 78.6729 80.0755 79 76.4369 79H60.8604ZM73.1867 57.3524H75.8236C78.5628 57.3524 80.5252 56.7187 81.7108 55.4513C82.9373 54.184 83.5506 51.9763 83.5506 48.8283C83.5506 45.5576 82.9986 43.2273 81.8948 41.8373C80.7909 40.4472 78.9921 39.7522 76.4982 39.7522H73.1867V57.3524ZM73.1867 77.7735H76.2529C79.3191 77.7735 81.5882 76.9558 83.06 75.3205C84.5726 73.6852 85.329 71.13 85.329 67.6549C85.329 64.3843 84.6135 62.054 83.1826 60.6639C81.7517 59.2739 79.4009 58.5789 76.1303 58.5789H73.1867V77.7735Z" fill="white" fill-opacity="0.3"/>
</svg>
